<?xml version="1.0" standalone="no"?><!DOCTYPE svg PUBLIC "-//W3C//DTD SVG 1.1//EN" "http://www.w3.org/Graphics/SVG/1.1/DTD/svg11.dtd"><svg class="icon" width="200px" height="200.00px" viewBox="0 0 1024 1024" version="1.1" xmlns="http://www.w3.org/2000/svg"><path d="M896 512a42.666667 42.666667 0 0 0-42.666667-42.666667H192a42.666667 42.666667 0 1 0 0 85.333334H853.333333a42.666667 42.666667 0 0 0 42.666667-42.666667z" fill="#1296db" /><path d="M456.832 819.498667a42.666667 42.666667 0 0 0 0-60.330667L209.664 512l247.168-247.168a42.666667 42.666667 0 0 0-60.330667-60.330667L149.333333 451.669333a85.333333 85.333333 0 0 0 0 120.661334l247.168 247.168a42.666667 42.666667 0 0 0 60.330667 0z" fill="#13227a" /></svg>