<?xml version="1.0" standalone="no"?><!DOCTYPE svg PUBLIC "-//W3C//DTD SVG 1.1//EN" "http://www.w3.org/Graphics/SVG/1.1/DTD/svg11.dtd"><svg t="1658149814655" class="icon" viewBox="0 0 1024 1024" version="1.1" xmlns="http://www.w3.org/2000/svg" p-id="1547" xmlns:xlink="http://www.w3.org/1999/xlink" width="200" height="200"><defs><style type="text/css">@font-face { font-family: feedback-iconfont; src: url("//at.alicdn.com/t/font_1031158_u69w8yhxdu.woff2?t=1630033759944") format("woff2"), url("//at.alicdn.com/t/font_1031158_u69w8yhxdu.woff?t=1630033759944") format("woff"), url("//at.alicdn.com/t/font_1031158_u69w8yhxdu.ttf?t=1630033759944") format("truetype"); }
</style></defs><path d="M320 259.626667c-107.306667 55.424-175.232 147.712-208.981333 204.032a93.269333 93.269333 0 0 0 0 96.682666C161.706667 644.906667 289.493333 810.666667 512 810.666667c111.488 0 199.168-41.6 265.301333-93.781334L320.042667 259.626667zM839.765333 658.688a614.826667 614.826667 0 0 0 73.216-98.346667 93.312 93.312 0 0 0 0-96.682666C862.293333 379.093333 734.506667 213.333333 512 213.333333c-37.546667 0-72.362667 4.693333-104.618667 12.970667l432.384 432.384z" fill="#13227a" p-id="1548"></path><path d="M456.874667 396.458667a128 128 0 1 0 170.666666 170.666666l-170.666666-170.666666z" fill="#7dc5eb" p-id="1549"></path><path d="M97.834667 97.834667a42.666667 42.666667 0 0 1 60.330666 0l768 768a42.666667 42.666667 0 0 1-60.330666 60.330666l-768-768a42.666667 42.666667 0 0 1 0-60.330666z" fill="#333333" p-id="1550"></path></svg>