<?xml version="1.0" standalone="no"?><!DOCTYPE svg PUBLIC "-//W3C//DTD SVG 1.1//EN" "http://www.w3.org/Graphics/SVG/1.1/DTD/svg11.dtd"><svg class="icon" width="200px" height="200.00px" viewBox="0 0 1024 1024" version="1.1" xmlns="http://www.w3.org/2000/svg"><path d="M520.832 819.498667a42.666667 42.666667 0 0 0 0-60.330667L273.664 512l247.168-247.168a42.666667 42.666667 0 0 0-60.330667-60.330667L213.333333 451.669333a85.333333 85.333333 0 0 0 0 120.661334l247.168 247.168a42.666667 42.666667 0 0 0 60.330667 0z" fill="#1296db" /><path d="M787.498667 819.498667a42.666667 42.666667 0 0 0 0-60.330667L540.330667 512l247.168-247.168a42.666667 42.666667 0 0 0-60.330667-60.330667l-247.168 247.168a85.333333 85.333333 0 0 0 0 120.661334l247.168 247.168a42.666667 42.666667 0 0 0 60.330667 0z" fill="#13227a" /></svg>