<?xml version="1.0" standalone="no"?><!DOCTYPE svg PUBLIC "-//W3C//DTD SVG 1.1//EN" "http://www.w3.org/Graphics/SVG/1.1/DTD/svg11.dtd"><svg class="icon" width="200px" height="200.00px" viewBox="0 0 1024 1024" version="1.1" xmlns="http://www.w3.org/2000/svg"><path d="M492.501333 819.498667a42.666667 42.666667 0 0 1 0-60.330667L739.669333 512l-247.168-247.168a42.666667 42.666667 0 0 1 60.330667-60.330667l247.168 247.168a85.333333 85.333333 0 0 1 0 120.661334l-247.168 247.168a42.666667 42.666667 0 0 1-60.330667 0z" fill="#1296db" /><path d="M225.834667 819.498667a42.666667 42.666667 0 0 1 0-60.330667L473.002667 512 225.834667 264.832a42.666667 42.666667 0 0 1 60.330666-60.330667l247.168 247.168a85.333333 85.333333 0 0 1 0 120.661334l-247.168 247.168a42.666667 42.666667 0 0 1-60.330666 0z" fill="#13227a" /></svg>