<?xml version="1.0" standalone="no"?><!DOCTYPE svg PUBLIC "-//W3C//DTD SVG 1.1//EN" "http://www.w3.org/Graphics/SVG/1.1/DTD/svg11.dtd"><svg t="1658149803725" class="icon" viewBox="0 0 1024 1024" version="1.1" xmlns="http://www.w3.org/2000/svg" p-id="1247" xmlns:xlink="http://www.w3.org/1999/xlink" width="200" height="200"><defs><style type="text/css">@font-face { font-family: feedback-iconfont; src: url("//at.alicdn.com/t/font_1031158_u69w8yhxdu.woff2?t=1630033759944") format("woff2"), url("//at.alicdn.com/t/font_1031158_u69w8yhxdu.woff?t=1630033759944") format("woff"), url("//at.alicdn.com/t/font_1031158_u69w8yhxdu.ttf?t=1630033759944") format("truetype"); }
</style></defs><path d="M85.333333 213.333333a128 128 0 0 1 128-128h458.965334a128 128 0 0 1 90.538666 37.504L901.12 261.12A128 128 0 0 1 938.666667 351.701333V810.666667a128 128 0 0 1-128 128H213.333333a128 128 0 0 1-128-128V213.333333z" fill="#13227a" p-id="1248"></path><path d="M256 682.666667a85.333333 85.333333 0 0 1 85.333333-85.333334h341.333334a85.333333 85.333333 0 0 1 85.333333 85.333334v256H256v-256zM672.298667 85.333333H298.666667v170.666667a85.333333 85.333333 0 0 0 85.333333 85.333333h256a85.333333 85.333333 0 0 0 85.333333-85.333333V96.853333A128 128 0 0 0 672.298667 85.333333z" fill="#7dc5eb" p-id="1249"></path></svg>